<svg width="18" height="19" viewBox="0 0 18 19" xmlns="http://www.w3.org/2000/svg">
<g id="vuesax/twotone/profile">
<g id="profile">
<path id="Vector" opacity="0.4" d="M9.11992 8.6525C9.04492 8.645 8.95492 8.645 8.87242 8.6525C7.08742 8.5925 5.66992 7.13 5.66992 5.33C5.66992 3.4925 7.15492 2 8.99992 2C10.8374 2 12.3299 3.4925 12.3299 5.33C12.3224 7.13 10.9049 8.5925 9.11992 8.6525Z" stroke="#475467" stroke-width="1.5" stroke-linecap="round" stroke-linejoin="round"/>
<path id="Vector_2" d="M5.37004 11.42C3.55504 12.635 3.55504 14.615 5.37004 15.8225C7.43254 17.2025 10.815 17.2025 12.8775 15.8225C14.6925 14.6075 14.6925 12.6275 12.8775 11.42C10.8225 10.0475 7.44004 10.0475 5.37004 11.42Z" stroke="#475467" stroke-width="1.5" stroke-linecap="round" stroke-linejoin="round"/>
</g>
</g>
</svg>
