<svg width="18" height="19" viewBox="0 0 18 19" xmlns="http://www.w3.org/2000/svg">
<g id="vuesax/twotone/profile-2user">
<g id="profile-2user">
<path id="Vector" d="M6.86992 8.6525C6.79492 8.645 6.70492 8.645 6.62242 8.6525C4.83742 8.5925 3.41992 7.13 3.41992 5.33C3.41992 3.4925 4.90492 2 6.74992 2C8.58742 2 10.0799 3.4925 10.0799 5.33C10.0724 7.13 8.65492 8.5925 6.86992 8.6525Z" stroke="#475467" stroke-width="1.5" stroke-linecap="round" stroke-linejoin="round"/>
<path id="Vector_2" opacity="0.4" d="M12.3075 3.5C13.7625 3.5 14.9325 4.6775 14.9325 6.125C14.9325 7.5425 13.8075 8.6975 12.405 8.75C12.345 8.7425 12.2775 8.7425 12.21 8.75" stroke="#475467" stroke-width="1.5" stroke-linecap="round" stroke-linejoin="round"/>
<path id="Vector_3" d="M3.12004 11.42C1.30504 12.635 1.30504 14.615 3.12004 15.8225C5.18254 17.2025 8.56504 17.2025 10.6275 15.8225C12.4425 14.6075 12.4425 12.6275 10.6275 11.42C8.57254 10.0475 5.19004 10.0475 3.12004 11.42Z" stroke="#475467" stroke-width="1.5" stroke-linecap="round" stroke-linejoin="round"/>
<path id="Vector_4" opacity="0.4" d="M13.7549 15.5C14.2949 15.3875 14.8049 15.17 15.2249 14.8475C16.3949 13.97 16.3949 12.5225 15.2249 11.645C14.8124 11.33 14.3099 11.12 13.7774 11" stroke="#475467" stroke-width="1.5" stroke-linecap="round" stroke-linejoin="round"/>
</g>
</g>
</svg>
