<svg width="18" height="19" viewBox="0 0 18 19"  xmlns="http://www.w3.org/2000/svg">
<g id="vuesax/linear/setting-2">
<g id="setting-2">
<path id="Vector" d="M9 11.75C10.2426 11.75 11.25 10.7426 11.25 9.5C11.25 8.25736 10.2426 7.25 9 7.25C7.75736 7.25 6.75 8.25736 6.75 9.5C6.75 10.7426 7.75736 11.75 9 11.75Z" stroke="#475467" stroke-width="1.5" stroke-miterlimit="10" stroke-linecap="round" stroke-linejoin="round"/>
<path id="Vector_2" d="M1.5 10.1601V8.84007C1.5 8.06007 2.1375 7.41507 2.925 7.41507C4.2825 7.41507 4.8375 6.45507 4.155 5.27757C3.765 4.60257 3.9975 3.72507 4.68 3.33507L5.9775 2.59257C6.57 2.24007 7.335 2.45007 7.6875 3.04257L7.77 3.18507C8.445 4.36257 9.555 4.36257 10.2375 3.18507L10.32 3.04257C10.6725 2.45007 11.4375 2.24007 12.03 2.59257L13.3275 3.33507C14.01 3.72507 14.2425 4.60257 13.8525 5.27757C13.17 6.45507 13.725 7.41507 15.0825 7.41507C15.8625 7.41507 16.5075 8.05257 16.5075 8.84007V10.1601C16.5075 10.9401 15.87 11.5851 15.0825 11.5851C13.725 11.5851 13.17 12.5451 13.8525 13.7226C14.2425 14.4051 14.01 15.2751 13.3275 15.6651L12.03 16.4076C11.4375 16.7601 10.6725 16.5501 10.32 15.9576L10.2375 15.8151C9.5625 14.6376 8.4525 14.6376 7.77 15.8151L7.6875 15.9576C7.335 16.5501 6.57 16.7601 5.9775 16.4076L4.68 15.6651C3.9975 15.2751 3.765 14.3976 4.155 13.7226C4.8375 12.5451 4.2825 11.5851 2.925 11.5851C2.1375 11.5851 1.5 10.9401 1.5 10.1601Z" stroke="#475467" stroke-width="1.5" stroke-miterlimit="10" stroke-linecap="round" stroke-linejoin="round"/>
</g>
</g>
</svg>
